#!OML:ASF E:\Steps\Project 1\Capture day 1\Session 2\Subject.ASF
:FULLY-SPECIFIED
:DEGREES
333
root 9.73846 16.378 17.699 192.879 85.7705 167.753
lowerback -27.131 -1.23537 -4.56341
upperback -3.03621 0.229234 -1.17288
thorax 11.6951 0.0642 1.41275
lowerneck 0.583964 -0.391736 -3.05156
upperneck 8.68969 -0.78987 6.71387
head 2.74071 -0.228618 2.72189
rclavicle -4.32357e-015 2.10712e-014
rhumerus -27.4783 -18.3275 -86.1304
rradius 24.9444
rwrist 6.895
rhand -15.3228 -55.9927
rfingers 7.12502
rthumb 10.8534 -85.6922
lclavicle -4.32357e-015 2.10712e-014
lhumerus -22.758 -4.12535 88.024
lradius 21.2419
lwrist -5.62838
lhand -24.3779 -15.0896
lfingers 7.12502
lthumb 2.11235 14.8797
rfemur -26.3581 11.032 13.9203
rtibia 9.52735
rfoot -17.7501 -7.59072
rtoes -40.5245
lfemur -25.9755 -13.1559 -13.9096
ltibia 10.2976
lfoot -8.42982 6.57937
ltoes -40.0254
334
root 9.73253 16.3786 17.6975 194.2 85.7637 169.149
lowerback -26.9939 -1.27905 -4.45623
upperback -3.07316 0.106297 -1.00218
thorax 11.5863 0.00926803 1.50045
lowerneck 0.699519 -0.346564 -3.32468
upperneck 8.69109 -0.729146 6.76066
head 2.72019 -0.207907 2.78919
rclavicle 3.57812e-015 -2.10712e-014
rhumerus -27.4963 -17.4519 -86.196
rradius 25.2183
rwrist 6.08851
rhand -15.285 -56.1599
rfingers 7.12502
rthumb 10.8899 -85.8575
lclavicle 3.57812e-015 -2.10712e-014
lhumerus -22.9057 -3.22867 88.1779
lradius 21.1772
lwrist -6.15294
lhand -24.3086 -14.8656
lfingers 7.12502
lthumb 2.17934 15.103
rfemur -26.3143 11.0274 14.074
rtibia 9.57567
rfoot -17.8228 -7.58583
rtoes -40.7747
lfemur -25.9493 -12.4091 -14.0035
ltibia 10.3779
lfoot -8.30509 5.86626
ltoes -41.6097
335
root 9.72669 16.3776 17.6954 194.067 85.7721 169.061
lowerback -26.9224 -1.48067 -4.47138
upperback -3.07768 -0.202839 -0.680979
thorax 11.5615 -0.144856 1.76173
lowerneck 0.760727 -0.203112 -3.89507
upperneck 8.70287 -0.535495 6.82058
head 2.70835 -0.130892 2.91999
rclavicle 1.23246e-014 -3.37934e-014
rhumerus -27.3471 -16.2179 -86.1376
rradius 25.3396
rwrist 5.86472
rhand -14.8122 -55.9872
rfingers 7.12502
rthumb 11.3459 -85.6603
lclavicle 1.23246e-014 -3.37934e-014
lhumerus -22.9354 -1.2211 88.2539
lradius 20.9851
lwrist -7.5021
lhand -24.0468 -14.9613
lfingers 7.12502
lthumb 2.43219 15.0045
rfemur -26.3006 11.0607 14.0574
rtibia 9.61581
rfoot -17.9036 -7.59086
rtoes -40.5927
lfemur -25.9493 -12.2021 -14.0919
ltibia 10.4474
lfoot -8.27536 5.7233
ltoes -41.9949
336
root 9.71863 16.3774 17.6959 191.478 85.7799 166.465
lowerback -26.8695 -1.67861 -4.71764
upperback -3.0779 -0.412924 -0.529819
thorax 11.5494 -0.258118 1.99914
lowerneck 0.725157 -0.112815 -4.20327
upperneck 8.71521 -0.41259 6.83861
head 2.71481 -0.0799533 2.98703
rclavicle 5.86415e-015 4.37326e-015
rhumerus -27.1967 -15.397 -86.188
rradius 25.4111
rwrist 5.92799
rhand -14.5136 -55.928
rfingers 7.12502
rthumb 11.6338 -85.585
lclavicle 5.86415e-015 4.37326e-015
lhumerus -22.9224 -0.0372083 88.3491
lradius 20.8251
lwrist -8.11321
lhand -24.3498 -15.0594
lfingers 7.12502
lthumb 2.13951 14.9097
rfemur -26.3744 11.1219 13.7902
rtibia 9.69136
rfoot -17.9063 -7.67494
rtoes -40.2266
lfemur -26.0042 -12.0508 -14.3606
ltibia 10.509
lfoot -8.26856 5.64525
ltoes -41.3164
337
root 9.71488 16.3786 17.6987 190.491 85.818 165.515
lowerback -26.8442 -1.66665 -4.87308
upperback -3.05521 -0.348147 -0.57219
thorax 11.5587 -0.235256 2.06378
lowerneck 0.716945 -0.130157 -4.09338
upperneck 8.71805 -0.435556 6.81636
head 2.71733 -0.0879617 2.95833
rclavicle 1.08835e-014 1.15295e-014
rhumerus -27.1555 -15.1788 -86.4215
rradius 25.5211
rwrist 5.62026
rhand -15.2213 -56.1145
rfingers 7.12502
rthumb 10.9513 -85.8089
lclavicle 1.08835e-014 1.15295e-014
lhumerus -23.3925 -3.80381 89.3256
lradius 21.5018
lwrist -4.12694
lhand -25.2785 -14.2132
lfingers 7.12502
lthumb 1.24263 15.7629
rfemur -26.35 11.1757 13.7346
rtibia 9.7041
rfoot -17.8568 -7.72178
rtoes -40.1963
lfemur -25.9447 -11.8608 -14.4948
ltibia 10.4947
lfoot -8.24869 5.5445
ltoes -40.8806
338
root 9.7131 16.3773 17.6979 191.334 85.8725 166.439
lowerback -26.8511 -1.19741 -4.75793
upperback -3.04337 0.301559 -1.08246
thorax 11.5336 0.0872281 1.6529
lowerneck 0.772175 -0.371907 -3.24332
upperneck 8.67651 -0.762908 6.75963
head 2.70291 -0.22252 2.77224
rclavicle -7.35503e-015 2.18663e-014
rhumerus -27.3876 -16.5292 -86.7407
rradius 25.6623
rwrist 5.67394
rhand -15.7456 -56.0407
rfingers 7.12502
rthumb 10.4456 -85.7612
lclavicle -7.35503e-015 2.18663e-014
lhumerus -23.653 -6.91392 89.5405
lradius 21.8196
lwrist -2.18701
lhand -25.2245 -13.9862
lfingers 7.12502
lthumb 1.29475 15.9896
rfemur -26.265 11.2106 13.8289
rtibia 9.68511
rfoot -17.8545 -7.48336
rtoes -39.3486
lfemur -25.8375 -11.999 -14.398
ltibia 10.4689
lfoot -8.24316 5.72901
ltoes -40.9177
339
root 9.70823 16.3747 17.6923 191.031 85.8264 166.152
lowerback -26.922 -1.03354 -4.65
upperback -3.00916 0.520908 -1.31482
thorax 11.6007 0.198925 1.40635
lowerneck 0.781785 -0.443785 -3.00056
upperneck 8.65719 -0.860109 6.75375
head 2.69727 -0.2625 2.72281
rclavicle -7.50412e-015 3.77691e-014
rhumerus -27.3577 -16.921 -86.9271
rradius 25.6686
rwrist 5.80403
rhand -15.6256 -55.9765
rfingers 7.12502
rthumb 10.5614 -85.6911
lclavicle -7.50412e-015 3.77691e-014
lhumerus -23.6595 -7.41617 89.4906
lradius 21.7964
lwrist -2.22568
lhand -24.9309 -13.9674
lfingers 7.12502
lthumb 1.57832 16.0065
rfemur -26.2705 11.0532 13.7845
rtibia 9.70496
rfoot -17.8696 -7.40588
rtoes -39.2174
lfemur -25.8862 -12.1934 -14.4133
ltibia 10.5401
lfoot -8.25769 5.73437
ltoes -41.5059
340
root 9.70298 16.3753 17.6912 191.456 85.7496 166.59
lowerback -26.9714 -1.05818 -4.64026
upperback -2.959 0.484245 -1.28524
thorax 11.6865 0.177816 1.42081
lowerneck 0.755812 -0.430835 -3.05318
upperneck 8.65647 -0.842669 6.75989
head 2.70154 -0.255297 2.73519
rclavicle 7.85199e-015 -1.98785e-015
rhumerus -27.1858 -16.7884 -86.9809
rradius 25.6186
rwrist 5.78628
rhand -15.3882 -56.0552
rfingers 7.12502
rthumb 10.7904 -85.758
lclavicle 7.85199e-015 -1.98785e-015
lhumerus -23.6848 -7.18109 89.5956
lradius 21.7483
lwrist -2.73814
lhand -24.9661 -13.7157
lfingers 7.12502
lthumb 1.54428 16.2584
rfemur -26.2655 10.8701 13.8798
rtibia 9.72348
rfoot -17.8628 -7.7029
rtoes -40.6562
lfemur -25.9155 -12.1609 -14.4094
ltibia 10.5659
lfoot -8.25297 5.53642
ltoes -41.823
341
root 9.69977 16.3768 17.6925 192.778 85.7157 167.952
lowerback -26.9666 -1.06633 -4.58405
upperback -2.91716 0.449205 -1.24422
thorax 11.7342 0.159953 1.42194
lowerneck 0.687905 -0.414916 -3.09588
upperneck 8.66699 -0.821096 6.75508
head 2.71679 -0.245417 2.74255
rclavicle -9.39258e-015 7.15625e-015
rhumerus -27.0257 -16.7263 -87.0573
rradius 25.5505
rwrist 5.82711
rhand -15.1428 -55.9719
rfingers 7.12502
rthumb 11.0271 -85.6622
lclavicle -9.39258e-015 7.15625e-015
lhumerus -23.7469 -6.85503 89.6172
lradius 21.6536
lwrist -3.16723
lhand -24.9266 -13.8445
lfingers 7.12502
lthumb 1.58246 16.1294
rfemur -26.2326 10.8795 14.0179
rtibia 9.72409
rfoot -17.8493 -7.70823
rtoes -40.6259
lfemur -25.8821 -12.3285 -14.2446
ltibia 10.5222
lfoot -8.24021 5.75861
ltoes -41.4016
